<mxfile host="www.draw.io" modified="2019-11-11T10:43:44.843Z" agent="Mozilla/5.0 (Macintosh; Intel Mac OS X 10_14_2) AppleWebKit/537.36 (KHTML, like Gecko) Chrome/78.0.3904.70 Safari/537.36" etag="onuZjVtpdhEG2LyBjro9" version="12.2.3" type="github" pages="1">
  <diagram id="NSbflitY-tYtNRr4l-NA" name="第 1 页">
    <mxGraphModel dx="1426" dy="642" grid="1" gridSize="10" guides="1" tooltips="1" connect="1" arrows="1" fold="1" page="1" pageScale="1" pageWidth="827" pageHeight="1169" math="0" shadow="0">
      <root>
        <mxCell id="0"/>
        <mxCell id="1" parent="0"/>
        <mxCell id="ZIxkbeb41OaZMTuJT8WW-12" style="edgeStyle=orthogonalEdgeStyle;rounded=0;orthogonalLoop=1;jettySize=auto;html=1;entryX=0.5;entryY=1;entryDx=0;entryDy=0;" edge="1" parent="1" source="ZIxkbeb41OaZMTuJT8WW-1" target="ZIxkbeb41OaZMTuJT8WW-8">
          <mxGeometry relative="1" as="geometry"/>
        </mxCell>
        <mxCell id="ZIxkbeb41OaZMTuJT8WW-1" value="执行对象类型元数据" style="swimlane;childLayout=stackLayout;horizontal=1;startSize=30;horizontalStack=0;fillColor=#008cff;fontColor=#FFFFFF;rounded=1;fontSize=14;fontStyle=0;strokeWidth=2;resizeParent=0;resizeLast=1;shadow=0;dashed=0;align=center;" vertex="1" parent="1">
          <mxGeometry x="120" y="450" width="160" height="120" as="geometry"/>
        </mxCell>
        <mxCell id="ZIxkbeb41OaZMTuJT8WW-2" value="+ api地址&#xa;+ token&#xa;+ ..." style="align=left;strokeColor=none;fillColor=none;spacingLeft=4;fontSize=12;verticalAlign=top;resizable=0;rotatable=0;part=1;" vertex="1" parent="ZIxkbeb41OaZMTuJT8WW-1">
          <mxGeometry y="30" width="160" height="90" as="geometry"/>
        </mxCell>
        <mxCell id="ZIxkbeb41OaZMTuJT8WW-3" value="预案对象" style="swimlane;childLayout=stackLayout;horizontal=1;startSize=30;horizontalStack=0;fillColor=#008cff;fontColor=#FFFFFF;rounded=1;fontSize=14;fontStyle=0;strokeWidth=2;resizeParent=0;resizeLast=1;shadow=0;dashed=0;align=center;" vertex="1" parent="1">
          <mxGeometry x="120" y="80" width="160" height="120" as="geometry"/>
        </mxCell>
        <mxCell id="ZIxkbeb41OaZMTuJT8WW-4" value="+List&lt;执行对象&gt;&#xa;+执行结果&#xa;" style="align=left;strokeColor=none;fillColor=none;spacingLeft=4;fontSize=12;verticalAlign=top;resizable=0;rotatable=0;part=1;" vertex="1" parent="ZIxkbeb41OaZMTuJT8WW-3">
          <mxGeometry y="30" width="160" height="90" as="geometry"/>
        </mxCell>
        <mxCell id="ZIxkbeb41OaZMTuJT8WW-11" style="edgeStyle=orthogonalEdgeStyle;rounded=0;orthogonalLoop=1;jettySize=auto;html=1;entryX=1;entryY=0.5;entryDx=0;entryDy=0;" edge="1" parent="1" source="ZIxkbeb41OaZMTuJT8WW-5" target="ZIxkbeb41OaZMTuJT8WW-4">
          <mxGeometry relative="1" as="geometry"/>
        </mxCell>
        <mxCell id="ZIxkbeb41OaZMTuJT8WW-5" value="执行对象" style="swimlane;childLayout=stackLayout;horizontal=1;startSize=30;horizontalStack=0;fillColor=#008cff;fontColor=#FFFFFF;rounded=1;fontSize=14;fontStyle=0;strokeWidth=2;resizeParent=0;resizeLast=1;shadow=0;dashed=0;align=center;" vertex="1" parent="1">
          <mxGeometry x="350" y="200" width="190" height="120" as="geometry"/>
        </mxCell>
        <mxCell id="ZIxkbeb41OaZMTuJT8WW-6" value="+Map&lt;String,Object&gt; 执行参数&#xa;+执行AppID&#xa;+执行机IP&#xa;+执行对象类型&#xa;+执行结果" style="align=left;strokeColor=none;fillColor=none;spacingLeft=4;fontSize=12;verticalAlign=top;resizable=0;rotatable=0;part=1;" vertex="1" parent="ZIxkbeb41OaZMTuJT8WW-5">
          <mxGeometry y="30" width="190" height="90" as="geometry"/>
        </mxCell>
        <mxCell id="ZIxkbeb41OaZMTuJT8WW-7" value="执行对象类型" style="swimlane;childLayout=stackLayout;horizontal=1;startSize=30;horizontalStack=0;fillColor=#008cff;fontColor=#FFFFFF;rounded=1;fontSize=14;fontStyle=0;strokeWidth=2;resizeParent=0;resizeLast=1;shadow=0;dashed=0;align=center;" vertex="1" parent="1">
          <mxGeometry x="120" y="300" width="160" height="120" as="geometry"/>
        </mxCell>
        <mxCell id="ZIxkbeb41OaZMTuJT8WW-8" value="+ 平台接口(soa,hms...)&#xa;+ Apollo服务&#xa;+ 预案SDK&#xa;" style="align=left;strokeColor=none;fillColor=none;spacingLeft=4;fontSize=12;verticalAlign=top;resizable=0;rotatable=0;part=1;" vertex="1" parent="ZIxkbeb41OaZMTuJT8WW-7">
          <mxGeometry y="30" width="160" height="90" as="geometry"/>
        </mxCell>
        <mxCell id="ZIxkbeb41OaZMTuJT8WW-10" style="edgeStyle=orthogonalEdgeStyle;rounded=0;orthogonalLoop=1;jettySize=auto;html=1;exitX=1;exitY=0.5;exitDx=0;exitDy=0;entryX=0;entryY=0.5;entryDx=0;entryDy=0;" edge="1" parent="1" source="ZIxkbeb41OaZMTuJT8WW-8" target="ZIxkbeb41OaZMTuJT8WW-6">
          <mxGeometry relative="1" as="geometry"/>
        </mxCell>
      </root>
    </mxGraphModel>
  </diagram>
</mxfile>
